<svg xmlns="http://www.w3.org/2000/svg" width="74.1" height="21.109" viewBox="0 0 74.1 21.109">
  <g id="_1012822_code_development_logo_mongodb_programming_icon" data-name="1012822_code_development_logo_mongodb_programming_icon" transform="translate(-16.929 -5.2)">
    <g id="Group_12978" data-name="Group 12978" transform="translate(16.929 5.2)">
      <path id="Path_13955" data-name="Path 13955" d="M390.446,57.938c-.061.015-.138.154-.138.246-.015.538-.031,1.953-.031,2.921a.1.1,0,0,0,.077.077c.2.015.676.031,1.092.031a2.952,2.952,0,0,0,1.092-.154,1.44,1.44,0,0,0,.707-1.338c0-1.291-.907-1.8-2.26-1.8a1.292,1.292,0,0,0-.538.015Zm3.444,5.981c0-1.322-.969-2.06-2.737-2.06a6.6,6.6,0,0,0-.769.015c-.046.015-.092.046-.092.077,0,.953-.015,2.46.031,3.044a1,1,0,0,0,.446.723,3,3,0,0,0,1.168.154,1.813,1.813,0,0,0,1.953-1.953ZM387.709,57.2c.138,0,.538.046,1.568.046.969,0,1.753-.031,2.706-.031,1.168,0,2.767.415,2.767,2.152a2.1,2.1,0,0,1-1.384,1.876c-.046.015-.046.046,0,.046a2.392,2.392,0,0,1,2.106,2.291,2.817,2.817,0,0,1-1.968,2.614,6.373,6.373,0,0,1-2.491.415c-.676,0-2.506-.077-3.536-.046-.108-.046.092-.523.185-.6a2.587,2.587,0,0,0,.676-.108c.354-.092.4-.2.461-.753.031-.461.031-2.122.031-3.306,0-1.614.015-2.721,0-3.244-.015-.415-.154-.553-.461-.63-.231-.046-.6-.092-.907-.138-.062-.077.169-.538.246-.584Zm-7.7,8.318a2.641,2.641,0,0,0,1.507.354,2.952,2.952,0,0,0,2.137-.769,4.076,4.076,0,0,0,1.2-3.213A3.816,3.816,0,0,0,383.1,58.43a4.693,4.693,0,0,0-2.506-.584,2.145,2.145,0,0,0-.753.092.4.4,0,0,0-.138.215c-.031.261-.031,2.322-.031,3.536,0,1.245,0,2.983.031,3.183a.919.919,0,0,0,.307.646ZM376.962,57.2c.261,0,1.23.046,1.691.046.846,0,1.445-.046,3.029-.046a4.88,4.88,0,0,1,3.259,1.045,4.363,4.363,0,0,1,1.491,3.428,4.463,4.463,0,0,1-1.845,3.844,6.217,6.217,0,0,1-3.844,1.076c-.907,0-2.475-.031-3.767-.046h-.015c-.062-.123.108-.584.215-.6a1.9,1.9,0,0,0,.615-.123c.277-.108.338-.261.369-.753.046-.922.031-2.029.031-3.29,0-.892.015-2.644-.015-3.213-.046-.461-.246-.584-.646-.661a8.009,8.009,0,0,0-.846-.138c-.031-.077.215-.492.277-.569Z" transform="translate(-321.373 -49.205)" fill="#8e714e"/>
      <path id="Path_13956" data-name="Path 13956" d="M122.317,83.05a2.839,2.839,0,0,1-.876-.231.361.361,0,0,1-.108-.215c-.031-.461-.031-1.8-.031-2.706a3.186,3.186,0,0,0-.43-1.8,1.809,1.809,0,0,0-1.553-.8,3.52,3.52,0,0,0-2.029.969c-.015.015-.123.108-.108-.046,0-.154.031-.446.046-.646a.334.334,0,0,0-.092-.277,9.176,9.176,0,0,1-2.076.538c-.323.062-.4.369-.061.477h.015a2.919,2.919,0,0,1,.784.354.406.406,0,0,1,.123.369c.015,1,.015,2.537-.031,3.382-.015.338-.108.461-.354.507l.031-.015a4.711,4.711,0,0,1-.569.108.808.808,0,0,0,0,.6c.154,0,.922-.046,1.568-.046.876,0,1.338.046,1.568.046a.827.827,0,0,0,.061-.6,2.9,2.9,0,0,1-.615-.092c-.246-.046-.307-.169-.323-.461-.031-.707-.031-2.2-.031-3.229a.654.654,0,0,1,.154-.492,2.059,2.059,0,0,1,1.245-.461,1.4,1.4,0,0,1,.922.307,1.362,1.362,0,0,1,.43.846c.061.569.046,1.707.046,2.706,0,.538-.046.661-.246.738a2.453,2.453,0,0,1-.615.123.808.808,0,0,0,0,.6c.384,0,.846-.046,1.507-.046.83,0,1.368.046,1.584.046a.683.683,0,0,0,.062-.553Zm3.705-5.1c-.707,0-1.153.553-1.153,1.4,0,.876.384,1.876,1.491,1.876a1.027,1.027,0,0,0,.692-.261,1.749,1.749,0,0,0,.43-1.23c0-1.122-.553-1.783-1.461-1.783Zm-.092,5.9a1.008,1.008,0,0,0-.569.154c-.569.354-.815.707-.815,1.122a1.245,1.245,0,0,0,.461.969,2.343,2.343,0,0,0,1.6.492c1.368,0,1.968-.738,1.968-1.461a1.03,1.03,0,0,0-.769-1.03,5.24,5.24,0,0,0-1.876-.246Zm.092,3.475a2.878,2.878,0,0,1-1.906-.569,1.763,1.763,0,0,1-.707-1.322,1.038,1.038,0,0,1,.261-.661,7.646,7.646,0,0,1,1.23-.984q.046-.023.046-.046c0-.031-.031-.046-.046-.062a1.312,1.312,0,0,1-.876-.846v-.046a.194.194,0,0,1,.077-.246l.369-.246a6.154,6.154,0,0,0,.615-.4.085.085,0,0,0,.031-.077c0-.031-.031-.046-.046-.061a1.941,1.941,0,0,1-1.4-2.045,2.056,2.056,0,0,1,.861-1.691,3.922,3.922,0,0,1,1.922-.661h.046a4.337,4.337,0,0,1,1.476.323,2.5,2.5,0,0,0,.876.138,1.117,1.117,0,0,0,.938-.354.523.523,0,0,1,.046.261,1.069,1.069,0,0,1-.169.615.75.75,0,0,1-.584.261h-.061c-.246-.031-.354-.046-.354-.046l-.046.031c-.015.031,0,.046.015.092l.015.031a4.165,4.165,0,0,1,.077.569,2.174,2.174,0,0,1-.907,1.937,2.976,2.976,0,0,1-1.568.6,1.445,1.445,0,0,0-.185.015c-.061,0-.154.015-.169.015h-.015c-.108.031-.369.154-.369.384,0,.2.123.446.692.477.123.015.246.015.369.031a11.9,11.9,0,0,1,2.152.261,1.492,1.492,0,0,1,1,1.43,2.953,2.953,0,0,1-1.891,2.491,4.5,4.5,0,0,1-1.814.4Zm7.626-9.317a1.213,1.213,0,0,0-.723.2,2.066,2.066,0,0,0-.784,1.891c0,1.753.876,2.983,2.137,2.983a1.378,1.378,0,0,0,.922-.323,2.4,2.4,0,0,0,.584-1.86c0-1.722-.876-2.89-2.137-2.89Zm.231,5.719a2.95,2.95,0,0,1-3.09-3.229,2.9,2.9,0,0,1,1.322-2.537,4.077,4.077,0,0,1,2.045-.6,2.862,2.862,0,0,1,2.952,3.029,3.1,3.1,0,0,1-1.4,2.767,3.675,3.675,0,0,1-1.83.569Zm-23.815-5.719a1.213,1.213,0,0,0-.723.2,2.066,2.066,0,0,0-.784,1.891c0,1.753.876,2.983,2.137,2.983a1.378,1.378,0,0,0,.922-.323,2.4,2.4,0,0,0,.584-1.86c0-1.722-.861-2.89-2.137-2.89Zm.246,5.719a2.95,2.95,0,0,1-3.09-3.229,2.9,2.9,0,0,1,1.322-2.537,4.077,4.077,0,0,1,2.045-.6,2.862,2.862,0,0,1,2.952,3.029,3.1,3.1,0,0,1-1.4,2.767,3.675,3.675,0,0,1-1.83.569Zm-15.282-.138a.663.663,0,0,1-.046-.307.412.412,0,0,1,.046-.2,4.587,4.587,0,0,0,.584-.123c.261-.061.369-.215.384-.553.046-.8.046-2.322.031-3.382v-.031a.386.386,0,0,0-.154-.369,2.77,2.77,0,0,0-.8-.354c-.123-.046-.2-.108-.184-.184,0-.077.077-.169.261-.2a10.253,10.253,0,0,0,2.045-.523.324.324,0,0,1,.061.215l-.015.154c-.015.154-.031.323-.031.492a.1.1,0,0,0,.108.092c.031,0,.046-.015.077-.031a3.837,3.837,0,0,1,2.029-.907,1.72,1.72,0,0,1,1.553.953c.031.046.046.046.092.046a.085.085,0,0,0,.077-.046,4.1,4.1,0,0,1,2.106-.969c1.245,0,1.983.922,1.983,2.491,0,.446,0,1.015-.015,1.537,0,.461-.015.892-.015,1.2a.434.434,0,0,0,.246.323,2.678,2.678,0,0,0,.769.184h.015a1.1,1.1,0,0,1-.077.507,2.986,2.986,0,0,1-.338-.015c-.261-.015-.615-.031-1.015-.031-.83,0-1.261.015-1.676.046a1.128,1.128,0,0,1,0-.507,4.116,4.116,0,0,0,.507-.123c.261-.077.338-.2.354-.553,0-.261.046-2.414-.031-2.937a1.315,1.315,0,0,0-1.368-1.168,2.4,2.4,0,0,0-1.368.523.215.215,0,0,0-.046.138v.015a7.068,7.068,0,0,1,.046,1.092v.876c0,.6-.015,1.168,0,1.584,0,.292.169.354.323.415.077.015.138.031.2.046.123.031.246.046.43.092a.614.614,0,0,1-.015.369,1.3,1.3,0,0,1-.046.138c-.461-.015-.922-.031-1.6-.031-.2,0-.553.015-.846.015-.246,0-.461.015-.6.015a.642.642,0,0,1-.046-.261.612.612,0,0,1,.046-.246.772.772,0,0,1,.184-.031c.154-.031.292-.046.43-.077.231-.061.307-.184.323-.477a22.381,22.381,0,0,0-.015-3.06,1.263,1.263,0,0,0-1.307-1.168,2.461,2.461,0,0,0-1.368.523.438.438,0,0,0-.123.307V79.9c0,.969,0,2.168.015,2.691A.412.412,0,0,0,97.58,83a1.178,1.178,0,0,0,.307.046l.246.046a.985.985,0,0,1-.046.507c-.138,0-.292-.015-.477-.015-.277-.015-.646-.031-1.045-.031-.461,0-.8.015-1.076.031Z" transform="translate(-82.902 -66.215)" fill="#442d22"/>
      <g id="Group_12977" data-name="Group 12977" transform="translate(0 0)">
        <path id="Path_13957" data-name="Path 13957" d="M40.543,40.011l-.553-.184s.062-2.8-.938-3c-.661-.769.108-32.886,2.506-.108a1.926,1.926,0,0,0-.969,1.122,10.653,10.653,0,0,0-.046,2.168Z" transform="translate(-35.458 -19.424)" fill="#fff"/>
        <path id="Path_13958" data-name="Path 13958" d="M40.543,40.011l-.553-.184s.062-2.8-.938-3c-.661-.769.108-32.886,2.506-.108a1.926,1.926,0,0,0-.969,1.122,10.653,10.653,0,0,0-.046,2.168Z" transform="translate(-35.458 -19.424)" fill="#a6a385"/>
        <path id="Path_13959" data-name="Path 13959" d="M47.246,23.334a9.708,9.708,0,0,0,3.674-9.717C49.844,8.852,47.276,7.283,47,6.684A6.731,6.731,0,0,1,46.4,5.5l.2,13.268c.015.031-.4,4.074.646,4.566" transform="translate(-41.869 -5.454)" fill="#fff"/>
        <path id="Path_13960" data-name="Path 13960" d="M47.246,23.334a9.708,9.708,0,0,0,3.674-9.717C49.844,8.852,47.276,7.283,47,6.684A6.731,6.731,0,0,1,46.4,5.5l.2,13.268c.015.031-.4,4.074.646,4.566" transform="translate(-41.869 -5.454)" fill="#499d4a"/>
        <path id="Path_13961" data-name="Path 13961" d="M21.183,23.265s-4.5-3.075-4.243-8.487a11.488,11.488,0,0,1,4.043-8.564A1.237,1.237,0,0,0,21.444,5.2c.277.6.231,8.994.261,9.993a32.088,32.088,0,0,1-.523,8.072Z" transform="translate(-16.929 -5.2)" fill="#fff"/>
        <path id="Path_13962" data-name="Path 13962" d="M21.183,23.265s-4.5-3.075-4.243-8.487a11.488,11.488,0,0,1,4.043-8.564A1.237,1.237,0,0,0,21.444,5.2c.277.6.231,8.994.261,9.993a32.088,32.088,0,0,1-.523,8.072Z" transform="translate(-16.929 -5.2)" fill="#58aa50"/>
      </g>
    </g>
  </g>
</svg>
