<svg xmlns="http://www.w3.org/2000/svg" width="44.54" height="26.724" viewBox="0 0 44.54 26.724">
  <path id="Path_9457" data-name="Path 9457" d="M22.27,0Q13.362,0,11.136,8.908q3.341-4.455,7.795-3.341c1.694.423,2.9,1.653,4.245,3.013,2.183,2.216,4.71,4.781,10.23,4.781q8.908,0,11.135-8.908Q41.2,8.908,36.746,7.794c-1.694-.423-2.9-1.653-4.245-3.013C30.317,2.565,27.79,0,22.27,0ZM11.136,13.362Q2.228,13.362,0,22.27,3.342,17.816,7.8,18.93c1.694.424,2.9,1.653,4.245,3.013,2.183,2.216,4.711,4.781,10.23,4.781q8.908,0,11.135-8.908-3.341,4.455-7.795,3.341c-1.694-.423-2.9-1.653-4.245-3.013-2.183-2.217-4.71-4.782-10.23-4.782Z" transform="translate(-0.001)" fill="#38bdf8"/>
</svg>
