<svg xmlns="http://www.w3.org/2000/svg" width="32" height="32" viewBox="0 0 32 32">
  <g id="ts-logo-round-128" transform="translate(-0.125 -0.125)">
    <rect id="Rectangle_1943" data-name="Rectangle 1943" width="32" height="32" rx="16" transform="translate(0.125 0.125)" fill="#3178c6"/>
    <path id="Path_9454" data-name="Path 9454" d="M32.6,48.622v3.139a6.506,6.506,0,0,0,1.787.588,11.622,11.622,0,0,0,2.174.2,10.035,10.035,0,0,0,2.116-.216,5.151,5.151,0,0,0,1.758-.711,3.606,3.606,0,0,0,1.2-1.295,4.616,4.616,0,0,0,.189-3.472,3.5,3.5,0,0,0-.726-1.143,5.33,5.33,0,0,0-1.138-.9,12.138,12.138,0,0,0-1.5-.75q-.61-.255-1.094-.5a5.533,5.533,0,0,1-.823-.49,2.125,2.125,0,0,1-.523-.53,1.125,1.125,0,0,1-.184-.633A1.068,1.068,0,0,1,36,41.33a1.429,1.429,0,0,1,.465-.446,2.465,2.465,0,0,1,.736-.289,4.216,4.216,0,0,1,.968-.1,6.057,6.057,0,0,1,.818.059,6.39,6.39,0,0,1,.867.181,5.985,5.985,0,0,1,.848.309,4.658,4.658,0,0,1,.76.432V38.539a7.485,7.485,0,0,0-1.545-.407A12.426,12.426,0,0,0,37.992,38a8.825,8.825,0,0,0-2.092.24,5.285,5.285,0,0,0-1.738.75,3.73,3.73,0,0,0-1.186,1.3,3.851,3.851,0,0,0-.436,1.888,3.691,3.691,0,0,0,.8,2.393,6.079,6.079,0,0,0,2.426,1.677q.639.265,1.191.52a6.6,6.6,0,0,1,.954.53,2.515,2.515,0,0,1,.634.6,1.23,1.23,0,0,1,.232.736,1.137,1.137,0,0,1-.145.564,1.3,1.3,0,0,1-.441.451,2.4,2.4,0,0,1-.736.3,4.371,4.371,0,0,1-1.031.108,5.818,5.818,0,0,1-2-.358,5.938,5.938,0,0,1-1.83-1.074Zm-5.361-7.8h4.049V38.251H20v2.576h4.029V52.295h3.207Z" transform="translate(-14.959 -28.445)" fill="#fff" fill-rule="evenodd"/>
  </g>
</svg>
